<svg id="svg" xmlns="http://www.w3.org/2000/svg" xmlns:xlink="http://www.w3.org/1999/xlink" width="400" height="400" viewBox="0, 0, 400,400"><g id="svgg"><path id="path0" d="M253.646 16.146 C 253.359 16.432,253.125 20.951,253.125 26.187 C 253.125 37.052,254.150 39.649,259.592 42.578 L 262.496 44.141 262.501 53.125 C 262.506 62.832,263.671 66.462,267.134 67.561 C 268.184 67.895,268.750 68.739,268.750 69.975 L 268.750 71.875 245.117 71.882 L 221.484 71.890 217.384 74.241 C 211.389 77.679,210.250 80.037,201.927 106.250 C 194.777 128.763,194.338 130.542,193.955 138.477 L 193.549 146.875 176.641 146.875 L 159.732 146.875 158.264 141.992 C 157.262 138.659,156.696 133.844,156.481 126.823 C 156.102 114.399,155.035 112.500,148.437 112.500 C 141.840 112.500,140.773 114.399,140.394 126.823 C 140.179 133.844,139.613 138.659,138.611 141.992 L 137.143 146.875 133.025 146.875 L 128.906 146.875 128.909 127.148 L 128.911 107.422 133.896 107.303 C 144.835 107.043,156.250 97.417,156.250 88.453 C 156.250 82.352,140.262 82.756,132.248 89.060 C 131.138 89.933,130.081 90.498,129.898 90.315 C 129.190 89.607,132.269 75.761,134.911 67.773 L 137.690 59.375 145.056 59.375 C 155.328 59.375,159.326 56.948,161.407 49.446 C 161.978 47.387,163.025 44.038,163.734 42.003 C 165.805 36.053,163.544 29.471,158.479 26.712 C 157.145 25.985,154.955 24.395,153.612 23.177 C 148.820 18.831,141.290 18.073,136.639 21.470 C 135.179 22.536,132.388 24.455,130.436 25.734 C 123.775 30.099,121.886 36.631,125.000 44.531 C 125.859 46.712,126.562 49.133,126.563 49.913 C 126.563 50.692,127.539 52.677,128.733 54.324 L 130.904 57.318 128.333 64.698 C 126.919 68.757,125.088 75.284,124.264 79.203 C 123.441 83.122,122.742 85.821,122.712 85.202 C 122.681 84.582,121.281 81.760,119.600 78.931 L 116.544 73.787 117.587 69.767 C 118.161 67.555,119.009 65.039,119.471 64.174 C 122.236 59.008,119.558 51.059,113.733 47.140 C 111.551 45.673,108.571 43.607,107.111 42.549 C 102.643 39.311,93.933 40.155,90.620 44.146 C 90.036 44.850,88.228 46.105,86.602 46.934 C 80.548 50.023,77.643 58.954,80.754 64.916 C 81.336 66.031,82.038 68.140,82.314 69.604 C 83.966 78.350,87.997 80.595,101.563 80.328 L 112.109 80.120 115.430 86.721 C 119.696 95.203,119.799 96.759,115.923 94.128 C 108.121 88.834,93.750 89.206,93.750 94.703 C 93.750 103.846,105.286 113.393,116.563 113.583 L 121.874 113.672 121.875 130.273 L 121.875 146.875 112.553 146.875 L 103.230 146.875 102.982 133.997 L 102.734 121.120 100.182 118.568 L 97.631 116.016 87.878 115.757 L 78.125 115.498 78.125 111.968 C 78.125 108.995,77.706 108.018,75.469 105.781 L 72.813 103.125 62.500 103.125 L 52.187 103.125 49.531 105.781 C 47.280 108.032,46.875 108.986,46.875 112.031 L 46.875 115.625 37.408 115.625 L 27.941 115.625 24.908 118.658 L 21.875 121.691 21.875 134.250 L 21.875 146.809 15.820 147.037 L 9.766 147.266 9.766 268.750 L 9.766 390.234 200.000 390.234 L 390.234 390.234 390.234 268.750 L 390.234 147.266 376.467 147.053 L 362.699 146.840 362.295 138.459 C 361.913 130.545,361.468 128.750,354.321 106.250 C 346.044 80.191,344.808 77.650,338.709 74.152 L 334.766 71.890 311.133 71.882 L 287.500 71.875 287.500 65.984 C 287.500 60.111,287.509 60.085,290.681 57.068 L 293.862 54.042 293.611 41.999 C 293.326 28.338,292.317 25.614,286.001 21.434 C 281.684 18.577,255.495 14.297,253.646 16.146 M148.082 36.293 C 151.601 39.811,149.075 46.094,144.141 46.094 C 141.899 46.094,138.281 42.957,138.281 41.012 C 138.281 35.477,144.346 32.556,148.082 36.293 M273.558 46.032 C 275.943 50.225,278.569 51.324,281.327 49.285 C 284.140 47.206,286.237 47.423,286.580 49.829 C 286.778 51.220,286.239 51.843,284.041 52.761 L 281.250 53.927 281.250 67.249 C 281.250 81.045,280.763 83.594,278.125 83.594 C 274.475 83.594,273.291 69.348,276.867 68.451 C 281.904 67.187,279.753 61.719,274.219 61.719 C 269.288 61.719,268.750 60.637,268.750 50.730 C 268.750 42.862,270.681 40.975,273.558 46.032 M102.645 56.351 C 105.230 57.529,106.560 60.803,105.541 63.481 C 104.028 67.461,99.526 68.347,96.449 65.270 C 91.852 60.673,96.727 53.655,102.645 56.351 M70.313 110.938 C 74.153 114.778,72.742 115.625,62.500 115.625 C 53.646 115.625,53.125 115.538,53.125 114.063 C 53.125 110.693,55.761 109.375,62.500 109.375 C 67.708 109.375,69.010 109.635,70.313 110.938 M234.375 133.594 L 234.375 146.875 231.250 146.875 L 228.125 146.875 228.125 143.273 C 228.125 140.246,233.327 120.313,234.117 120.313 C 234.259 120.313,234.375 126.289,234.375 133.594 M325.308 130.159 C 326.857 135.359,328.125 141.248,328.125 143.245 L 328.125 146.875 325.000 146.875 L 321.875 146.875 321.875 133.464 C 321.875 126.087,322.013 120.199,322.183 120.378 C 322.352 120.557,323.758 124.958,325.308 130.159 M213.489 125.043 C 218.316 126.356,222.677 127.565,223.180 127.729 C 223.862 127.952,223.812 128.967,222.985 131.717 C 222.096 134.669,221.875 142.470,221.875 170.827 C 221.875 205.208,221.829 206.296,220.313 207.813 C 218.658 209.467,189.063 210.322,189.063 208.715 C 189.063 207.386,192.420 205.048,195.968 203.906 L 199.609 202.734 200.031 169.141 C 200.442 136.330,201.737 122.656,204.432 122.656 C 204.587 122.656,208.662 123.730,213.489 125.043 M353.952 129.102 C 355.748 135.348,355.814 136.576,356.093 168.992 C 356.419 206.906,355.618 202.806,363.073 204.687 C 365.876 205.395,367.969 207.210,367.969 208.933 C 367.969 209.176,361.113 209.375,352.734 209.375 C 332.014 209.375,334.375 214.332,334.375 170.827 C 334.375 141.986,334.163 134.699,333.232 131.606 C 332.603 129.517,332.164 127.757,332.255 127.694 C 332.794 127.330,349.826 122.776,350.854 122.722 C 351.759 122.674,352.604 124.414,353.952 129.102 M46.451 131.836 L 47.198 134.375 62.500 134.375 L 77.802 134.375 78.549 131.836 C 79.135 129.848,79.721 129.297,81.250 129.297 C 82.779 129.297,83.365 129.848,83.951 131.836 C 84.674 134.292,84.836 134.375,88.885 134.375 C 93.763 134.375,96.094 135.385,96.094 137.500 C 96.094 139.615,93.763 140.625,88.885 140.625 C 84.836 140.625,84.674 140.708,83.951 143.164 C 83.365 145.152,82.779 145.703,81.250 145.703 C 79.721 145.703,79.135 145.152,78.549 143.164 L 77.802 140.625 62.500 140.625 L 47.198 140.625 46.451 143.164 C 45.865 145.152,45.279 145.703,43.750 145.703 C 42.221 145.703,41.635 145.152,41.049 143.164 C 40.326 140.708,40.164 140.625,36.115 140.625 C 31.237 140.625,28.906 139.615,28.906 137.500 C 28.906 135.367,31.245 134.375,36.277 134.375 C 39.702 134.375,40.625 134.115,40.625 133.152 C 40.625 128.521,45.172 127.493,46.451 131.836 M150.000 137.014 C 150.000 138.465,150.581 141.014,151.291 142.678 C 152.281 144.998,152.669 149.118,152.956 160.352 L 153.330 175.000 148.438 175.000 L 143.545 175.000 143.919 160.352 C 144.206 149.118,144.594 144.998,145.584 142.678 C 146.294 141.014,146.875 138.465,146.875 137.014 C 146.875 134.896,147.183 134.375,148.438 134.375 C 149.692 134.375,150.000 134.896,150.000 137.014 M21.875 162.969 L 21.875 172.813 24.531 175.469 L 27.187 178.125 62.500 178.125 L 97.812 178.125 100.469 175.469 L 103.125 172.813 103.125 162.969 L 103.125 153.125 120.294 153.125 L 137.464 153.125 137.677 166.992 L 137.891 180.859 148.438 180.859 L 158.984 180.859 159.198 166.992 L 159.411 153.125 176.581 153.125 L 193.750 153.125 193.750 174.963 L 193.750 196.802 190.430 198.271 C 184.269 200.996,180.681 206.821,181.382 212.963 L 181.641 215.234 202.213 215.443 L 222.786 215.651 225.456 212.982 L 228.125 210.313 228.125 181.719 L 228.125 153.125 231.227 153.125 L 234.329 153.125 234.547 201.367 L 234.766 249.609 237.268 254.688 C 242.731 265.776,248.347 269.892,266.059 275.796 L 278.125 279.817 278.125 305.534 L 278.125 331.250 275.711 331.250 C 273.871 331.250,264.834 325.754,237.626 308.086 C 199.710 283.465,196.568 281.668,189.127 280.358 C 183.328 279.336,183.103 280.707,191.277 267.206 L 198.125 255.897 206.680 252.910 C 220.128 248.214,221.078 245.998,214.120 235.547 C 207.736 225.956,207.738 225.957,194.141 229.753 C 186.076 232.005,185.499 232.068,184.766 230.775 C 182.813 227.334,180.283 225.781,176.644 225.793 C 169.320 225.816,167.484 228.598,169.930 235.963 L 171.219 239.844 160.808 258.594 C 155.081 268.906,150.213 277.344,149.988 277.344 C 149.764 277.344,147.173 270.093,144.231 261.230 C 140.003 248.495,138.349 244.523,136.344 242.285 C 134.948 240.727,133.229 238.324,132.524 236.944 C 131.818 235.563,129.966 233.454,128.408 232.256 C 121.107 226.643,120.454 225.822,118.412 219.689 C 117.141 215.873,116.406 211.931,116.406 208.928 C 116.406 179.510,76.559 177.027,67.626 205.889 C 63.979 217.674,59.560 222.123,47.391 226.262 C 27.246 233.114,21.875 243.336,21.875 274.819 L 21.875 294.667 24.080 295.499 C 26.260 296.322,26.277 296.377,25.562 300.526 C 24.254 308.118,25.531 311.939,39.538 342.339 C 54.537 374.893,53.862 373.669,58.211 376.218 L 61.513 378.153 80.952 377.944 L 100.391 377.734 100.633 374.807 L 100.875 371.880 214.305 371.682 L 327.734 371.484 327.734 343.750 L 327.734 316.016 324.804 316.016 L 321.874 316.016 321.874 305.190 C 321.875 296.856,322.100 294.448,322.852 294.728 C 323.389 294.929,329.004 296.800,335.329 298.886 L 346.831 302.679 350.954 314.811 C 355.478 328.118,356.814 329.759,361.209 327.407 C 363.319 326.278,382.813 276.179,382.813 271.886 C 382.813 269.194,384.916 270.048,348.242 257.855 L 321.875 249.089 321.875 201.107 L 321.875 153.125 325.000 153.125 L 328.125 153.125 328.125 181.719 L 328.125 210.313 330.781 212.969 L 333.438 215.625 353.732 215.625 C 376.868 215.625,376.335 215.772,375.493 209.627 C 374.620 203.257,370.997 199.424,363.867 197.326 C 362.607 196.956,362.500 195.207,362.500 175.025 L 362.500 153.125 373.438 153.125 L 384.375 153.125 384.375 268.750 L 384.375 384.375 200.000 384.375 L 15.625 384.375 15.625 268.750 L 15.625 153.125 18.750 153.125 L 21.875 153.125 21.875 162.969 M106.790 163.001 C 105.604 164.188,107.565 181.272,109.401 185.742 C 110.390 188.150,126.780 188.495,127.987 186.133 C 129.012 184.128,131.439 167.969,131.127 165.234 L 130.859 162.891 119.095 162.676 C 112.625 162.558,107.088 162.704,106.790 163.001 M166.165 163.001 C 164.979 164.188,166.940 181.272,168.776 185.742 C 169.765 188.150,186.155 188.495,187.362 186.133 C 188.387 184.128,190.814 167.969,190.502 165.234 L 190.234 162.891 178.470 162.676 C 172.000 162.558,166.463 162.704,166.165 163.001 M315.625 212.584 C 315.625 239.823,315.420 246.966,314.648 246.679 C 314.111 246.480,306.385 243.902,297.479 240.952 L 281.286 235.587 281.073 222.677 L 280.859 209.766 278.125 209.766 L 275.391 209.766 275.391 225.391 L 275.391 241.016 324.609 257.554 C 351.680 266.650,374.087 274.209,374.403 274.351 C 374.719 274.493,371.396 284.063,367.018 295.617 L 359.058 316.624 355.853 306.945 L 352.647 297.266 305.035 281.241 C 254.091 264.096,253.843 263.999,249.204 259.360 C 241.406 251.563,240.661 247.091,240.640 208.008 L 240.625 178.125 278.125 178.125 L 315.625 178.125 315.625 212.584 M140.965 185.852 C 119.162 195.755,126.081 228.125,150.000 228.125 C 163.189 228.125,171.819 219.471,171.858 206.208 C 171.896 193.091,163.191 184.409,150.000 184.409 C 145.971 184.409,143.149 184.860,140.965 185.852 M152.679 203.571 C 155.048 205.941,153.333 210.156,150.000 210.156 C 148.136 210.156,146.094 208.114,146.094 206.250 C 146.094 204.386,148.136 202.344,150.000 202.344 C 150.798 202.344,152.003 202.896,152.679 203.571 M101.563 216.977 C 101.563 224.683,100.574 226.563,96.520 226.563 C 92.884 226.563,90.324 230.787,92.969 232.422 C 94.633 233.450,93.924 246.875,92.206 246.875 C 90.739 246.875,90.652 246.229,90.449 233.852 L 90.234 220.828 87.984 219.582 C 85.026 217.944,85.607 216.736,89.206 217.039 C 92.952 217.354,96.586 215.422,98.569 212.062 C 100.852 208.192,101.563 209.357,101.563 216.977 M179.846 237.442 C 181.546 240.509,182.409 240.489,194.481 237.101 C 199.824 235.602,204.257 234.375,204.331 234.375 C 204.675 234.375,210.155 243.015,210.147 243.543 C 210.141 243.872,206.271 245.547,201.546 247.266 L 192.955 250.391 176.679 277.344 C 161.766 302.039,160.098 304.486,156.760 306.560 C 146.370 313.016,135.759 308.165,130.979 294.774 L 128.974 289.157 136.167 286.373 C 144.913 282.987,144.093 282.957,145.218 286.711 C 146.240 290.123,149.048 291.606,151.162 289.852 C 151.791 289.330,158.158 278.365,165.313 265.484 C 179.240 240.410,179.114 240.751,176.926 233.949 C 176.287 231.960,177.838 233.816,179.846 237.442 M83.597 245.898 C 83.604 251.554,89.143 255.402,94.963 253.795 C 98.115 252.925,100.774 249.315,100.778 245.898 L 100.781 243.750 111.914 243.769 C 124.797 243.790,128.647 244.478,130.972 247.173 C 133.010 249.535,141.854 275.669,140.908 276.533 C 139.054 278.224,127.089 282.089,126.261 281.263 C 125.753 280.757,125.228 276.097,125.000 270.080 L 124.609 259.766 122.304 259.503 C 117.958 259.009,117.912 259.338,117.970 290.224 C 117.999 305.698,118.010 319.590,117.993 321.094 C 117.967 323.474,117.366 324.310,113.354 327.553 L 108.745 331.278 89.397 331.069 L 70.049 330.859 65.102 319.597 C 59.166 306.080,59.225 310.064,64.546 282.315 C 69.179 258.148,69.223 257.376,65.983 256.563 C 62.740 255.749,62.082 257.241,59.353 271.589 L 56.807 284.974 48.130 282.705 C 43.358 281.457,38.897 280.262,38.218 280.051 C 37.087 279.698,40.742 258.122,43.258 250.298 C 44.955 245.022,49.528 243.826,68.164 243.784 L 83.594 243.750 83.597 245.898 M300.977 287.450 L 315.625 292.317 315.625 308.215 L 315.625 324.112 312.695 327.631 L 309.766 331.150 297.070 331.200 L 284.375 331.250 284.375 306.557 C 284.375 287.132,284.583 281.941,285.352 282.223 C 285.889 282.421,292.920 284.773,300.977 287.450 M46.094 289.546 C 56.314 292.190,55.598 291.183,53.835 300.448 L 52.338 308.318 63.998 335.087 C 77.610 366.336,74.999 362.194,82.343 364.190 C 86.219 365.244,89.136 366.578,90.644 367.986 C 94.822 371.889,94.304 372.046,78.139 371.753 L 63.309 371.484 61.030 369.141 C 58.526 366.566,33.359 312.516,32.474 307.813 C 31.674 303.562,35.110 286.607,36.678 287.068 C 37.345 287.264,41.582 288.379,46.094 289.546 M130.908 309.411 L 132.799 311.399 129.337 314.293 C 124.776 318.106,124.999 318.389,125.009 308.789 L 125.019 300.391 127.018 303.906 C 128.118 305.840,129.868 308.317,130.908 309.411 M188.070 327.330 L 194.141 331.222 183.594 331.206 L 173.047 331.190 177.203 327.314 C 182.191 322.661,180.785 322.659,188.070 327.330 M321.875 346.875 L 321.875 365.625 318.750 365.625 L 315.625 365.625 315.625 350.444 L 315.625 335.263 318.555 331.744 C 320.166 329.808,321.572 328.202,321.680 328.175 C 321.787 328.147,321.875 336.563,321.875 346.875 " stroke="none" fill="#000000" fill-rule="evenodd"></path></g></svg>